HIERARCHY
ROOT Hips
{
 OFFSET 0.000000 0.000000 0.000000
 CHANNELS 6 Xposition Yposition Zposition Yrotation Xrotation Zrotation
 JOINT Chest
 {
  OFFSET 0.000000 9.585900 0.002600
  CHANNELS 3 Yrotation Xrotation Zrotation
  JOINT Chest2
  {
   OFFSET 0.000000 9.601200 -0.005300
   CHANNELS 3 Yrotation Xrotation Zrotation
   JOINT Chest3
   {
    OFFSET 0.000000 9.561800 0.000000
    CHANNELS 3 Yrotation Xrotation Zrotation
    JOINT Chest4
    {
     OFFSET 0.000000 9.552100 0.000000
     CHANNELS 3 Yrotation Xrotation Zrotation
     JOINT Neck
     {
      OFFSET 0.000000 14.453000 0.000000
      CHANNELS 3 Yrotation Xrotation Zrotation
      JOINT Head
      {
       OFFSET 0.000000 8.936500 -0.011300
       CHANNELS 3 Yrotation Xrotation Zrotation
       End Site
       {
        OFFSET 0.000000 17.073600 -0.006000
       }
      }
     }
     JOINT RightCollar
     {
      OFFSET -2.921100 9.558500 0.000000
      CHANNELS 3 Yrotation Xrotation Zrotation
      JOINT RightShoulder
      {
       OFFSET -13.519700 0.000000 0.000000
       CHANNELS 3 Yrotation Xrotation Zrotation
       JOINT RightElbow
       {
        OFFSET 0.000000 -29.696600 0.000000
        CHANNELS 3 Yrotation Xrotation Zrotation
        JOINT RightWrist
        {
         OFFSET 0.000000 -24.004700 0.000000
         CHANNELS 3 Yrotation Xrotation Zrotation
         End Site
         {
          OFFSET 0.000000 -17.728500 0.000000
         }
        }
       }
      }
     }
     JOINT LeftCollar
     {
      OFFSET 2.921100 9.558500 0.000000
      CHANNELS 3 Yrotation Xrotation Zrotation
      JOINT LeftShoulder
      {
       OFFSET 13.519700 0.000000 0.000000
       CHANNELS 3 Yrotation Xrotation Zrotation
       JOINT LeftElbow
       {
        OFFSET 0.000000 -29.696600 0.000000
        CHANNELS 3 Yrotation Xrotation Zrotation
        JOINT LeftWrist
        {
         OFFSET 0.000000 -24.004700 0.000000
         CHANNELS 3 Yrotation Xrotation Zrotation
         End Site
         {
          OFFSET 0.000000 -17.728500 0.000000
         }
        }
       }
      }
     }
    }
   }
  }
 }
 JOINT RightHip
 {
  OFFSET -7.771700 -0.012900 -0.001300
  CHANNELS 3 Yrotation Xrotation Zrotation
  JOINT RightKnee
  {
   OFFSET 0.000000 -40.869800 0.001200
   CHANNELS 3 Yrotation Xrotation Zrotation
   JOINT RightAnkle
   {
    OFFSET 0.000000 -39.717900 0.002100
    CHANNELS 3 Yrotation Xrotation Zrotation
    JOINT RightToe
    {
     OFFSET 0.000000 -4.965400 11.033500
     CHANNELS 3 Yrotation Xrotation Zrotation
     End Site
     {
      OFFSET 0.000000 -1.423100 5.872300
     }
    }
   }
  }
 }
 JOINT LeftHip
 {
  OFFSET 7.771700 -0.012900 -0.001300
  CHANNELS 3 Yrotation Xrotation Zrotation
  JOINT LeftKnee
  {
   OFFSET 0.000000 -40.869800 0.001200
   CHANNELS 3 Yrotation Xrotation Zrotation
   JOINT LeftAnkle
   {
    OFFSET 0.000000 -39.717900 0.002100
    CHANNELS 3 Yrotation Xrotation Zrotation
    JOINT LeftToe
    {
     OFFSET 0.000000 -4.965400 11.033500
     CHANNELS 3 Yrotation Xrotation Zrotation
     End Site
     {
      OFFSET 0.000000 -1.423100 5.872300
     }
    }
   }
  }
 }
}
MOTION
Frames: 13
Frame Time: 0.008333
-122.359637 51.700307 -50.862142 176.071512 -20.363866 0.377308 -0.840688 12.089066 0.860628 -0.071811 0.890808 0.116128 -0.126119 1.509160 0.201337 -0.773509 11.031306 1.374979 -0.873391 19.202793 -1.982497 -0.481469 -5.449131 -1.890036 3.819770 16.412925 13.191913 30.069131 -2.305078 -26.398169 105.137680 -67.394793 -137.262780 1.627413 3.187811 0.729115 -4.314089 15.769638 -15.527438 -30.364005 1.163630 28.677996 -84.310725 -74.169656 125.031711 11.266127 9.030862 -9.396058 -11.316812 -61.981321 6.140031 -100.187319 82.242773 -108.081461 -2.167646 -10.718541 7.969015 0.268478 -0.839327 0.137389 13.843688 -60.061659 -9.937870 30.304176 85.432075 35.892425 -3.347098 -12.655961 1.501247 0.173510 0.446599 0.073209
-122.362703 51.698384 -50.863398 176.066320 -20.351027 0.374224 -0.831027 12.091565 0.861179 -0.073656 0.879835 0.120422 -0.121527 1.522513 0.197633 -0.761629 11.050095 1.363870 -0.885908 19.190779 -1.963951 -0.494071 -5.424067 -1.880789 3.821495 16.373935 13.193708 30.091612 -2.279637 -26.431030 105.185381 -67.381183 -137.276236 1.623705 3.196748 0.714217 -4.326764 15.744100 -15.508369 -30.383259 1.170811 28.699667 -84.069449 -74.026571 124.838794 11.244025 9.005474 -9.389978 -11.314664 -61.992279 6.143830 -100.172888 82.245460 -108.063950 -2.167957 -10.712114 7.967364 0.268212 -0.842380 0.136177 13.839999 -60.075988 -9.934329 30.350120 85.434897 35.938992 -3.350664 -12.663671 1.501484 0.180113 0.450406 0.072027
-122.365395 51.696510 -50.864688 176.061546 -20.337497 0.371277 -0.822799 12.093034 0.861444 -0.072371 0.879366 0.118441 -0.120829 1.522952 0.197382 -0.756398 11.051991 1.363953 -0.891269 19.182158 -1.955085 -0.500956 -5.407181 -1.876800 3.825989 16.357320 13.182916 30.119524 -2.257112 -26.464924 105.239573 -67.374935 -137.302978 1.621597 3.204117 0.701523 -4.330939 15.732114 -15.499798 -30.384556 1.172444 28.710716 -83.969183 -73.926869 124.755982 11.231974 8.983019 -9.382656 -11.309825 -62.004452 6.149779 -100.156575 82.246120 -108.044428 -2.178752 -10.702018 7.964755 0.276672 -0.847395 0.139823 13.819513 -60.091821 -9.918139 30.440688 85.435166 36.021336 -3.351891 -12.672274 1.505332 0.178425 0.454360 0.068401
-122.367853 51.694835 -50.866306 176.064954 -20.325272 0.366978 -0.824806 12.084689 0.864017 -0.066233 0.906508 0.111290 -0.119340 1.523355 0.196503 -0.756106 11.032415 1.368260 -0.900365 19.203257 -1.951215 -0.504692 -5.415369 -1.871980 3.854766 16.339971 13.156063 30.123772 -2.247728 -26.480767 105.267945 -67.401450 -137.352749 1.633485 3.180641 0.736771 -4.333350 15.723816 -15.495347 -30.387708 1.173650 28.723494 -83.966545 -73.877591 124.765335 11.231744 8.967106 -9.376092 -11.311754 -62.013339 6.152840 -100.137333 82.240349 -108.022683 -2.181012 -10.702751 7.963216 0.282591 -0.846685 0.144247 13.776091 -60.109220 -9.894809 30.553151 85.435947 36.121965 -3.343893 -12.674767 1.501121 0.169110 0.450095 0.069081
-122.369660 51.692985 -50.867050 176.063457 -20.306957 0.363014 -0.819003 12.081682 0.864674 -0.061922 0.907235 0.112413 -0.118832 1.523742 0.195917 -0.760593 11.019715 1.371319 -0.913956 19.259648 -1.965513 -0.529689 -5.385742 -1.860611 3.869017 16.334995 13.146642 30.145899 -2.229252 -26.517121 105.323723 -67.402969 -137.380145 1.632468 3.186661 0.726068 -4.338566 15.736803 -15.513468 -30.390660 1.168851 28.756172 -84.009788 -73.864427 124.816107 11.238333 8.959948 -9.371433 -11.315795 -62.029258 6.163443 -100.103810 82.235973 -107.988480 -2.179188 -10.697461 7.960418 0.280745 -0.847659 0.146242 13.764054 -60.130231 -9.892732 30.548058 85.441971 36.120438 -3.333358 -12.681406 1.492856 0.169090 0.450987 0.070925
-122.372650 51.691546 -50.868548 176.068501 -20.292355 0.366991 -0.816047 12.081572 0.859277 -0.062656 0.909575 0.108282 -0.118130 1.524250 0.195432 -0.758226 11.020579 1.368886 -0.922383 19.269558 -1.964168 -0.536010 -5.393809 -1.852575 3.868779 16.315478 13.152986 30.180010 -2.203925 -26.558440 105.375178 -67.402502 -137.407114 1.629545 3.196083 0.713090 -4.345831 15.728534 -15.507679 -30.391016 1.163217 28.767959 -84.034016 -73.862443 124.841234 11.241823 8.958199 -9.369295 -11.306242 -62.045417 6.148186 -100.120392 82.234571 -108.003636 -2.177904 -10.692520 7.960544 0.279080 -0.848775 0.139233 13.770833 -60.143418 -9.910421 30.548638 85.443972 36.122273 -3.339175 -12.684312 1.492930 0.177307 0.451447 0.071175
-122.374234 51.690103 -50.869504 176.067052 -20.274366 0.367352 -0.805874 12.081851 0.855939 -0.067365 0.899877 0.110091 -0.114442 1.532838 0.191453 -0.750554 11.024333 1.366254 -0.930652 19.274624 -1.960491 -0.543700 -5.401220 -1.844150 3.884063 16.288293 13.154102 30.187023 -2.190120 -26.574811 105.410102 -67.401143 -137.423665 1.629303 3.197399 0.712200 -4.354598 15.718299 -15.496029 -30.392844 1.151412 28.780920 -84.369028 -73.949735 125.161129 11.293720 8.937416 -9.371519 -11.310301 -62.062301 6.154560 -100.124659 82.241383 -108.009439 -2.182058 -10.688423 7.957331 0.278230 -0.850136 0.139749 13.773200 -60.160471 -9.917940 30.603535 85.443128 36.179824 -3.343258 -12.692183 1.490751 0.182519 0.455891 0.070348
-122.375382 51.688819 -50.870445 176.068196 -20.256083 0.366749 -0.802106 12.079390 0.848321 -0.069101 0.892048 0.114557 -0.111628 1.537427 0.190916 -0.727964 11.049021 1.352434 -0.945742 19.261588 -1.945756 -0.555714 -5.391598 -1.836091 3.892431 16.245499 13.159481 30.170903 -2.197127 -26.564730 105.439343 -67.385197 -137.408550 1.623724 3.210410 0.683806 -4.373368 15.691298 -15.470725 -30.394474 1.139324 28.790399 -84.671775 -74.050270 125.441379 11.333101 8.925717 -9.364088 -11.320810 -62.078749 6.164402 -100.124545 82.246690 -108.013326 -2.181375 -10.685694 7.957048 0.273688 -0.851861 0.138725 13.762611 -60.179126 -9.916389 30.688585 85.439957 36.262707 -3.346963 -12.697526 1.483927 0.180802 0.457141 0.073443
-122.376354 51.687679 -50.871437 176.073766 -20.237897 0.365841 -0.801164 12.077383 0.843782 -0.068467 0.892376 0.114417 -0.116003 1.525064 0.194857 -0.718880 11.059674 1.346069 -0.949355 19.270239 -1.947482 -0.564571 -5.384727 -1.833262 3.941352 16.226562 13.131203 30.153795 -2.200995 -26.559387 105.458552 -67.396087 -137.426005 1.616580 3.216109 0.659592 -4.384999 15.684873 -15.464306 -30.391868 1.125445 28.801672 -84.938688 -74.145610 125.679976 11.368677 8.919811 -9.350742 -11.333468 -62.095223 6.173140 -100.121803 82.247846 -108.014283 -2.184121 -10.682569 7.959167 0.275138 -0.853726 0.136114 13.764347 -60.196505 -9.925986 30.717516 85.438524 36.292423 -3.348106 -12.701634 1.480743 0.177039 0.458124 0.075915
-122.376705 51.686627 -50.872453 176.079176 -20.219821 0.363292 -0.790774 12.077157 0.842829 -0.062828 0.906770 0.110157 -0.121157 1.511263 0.198184 -0.728556 11.046120 1.350279 -0.946677 19.287801 -1.955520 -0.569102 -5.356535 -1.845305 3.954554 16.220905 13.124840 30.213445 -2.167592 -26.606384 105.425862 -67.438640 -137.458414 1.627390 3.189469 0.717189 -4.393265 15.687014 -15.467442 -30.392042 1.115960 28.817538 -85.137255 -74.224638 125.859841 11.434823 8.917792 -9.337225 -11.351832 -62.110541 6.187703 -100.107489 82.246701 -108.005186 -2.181607 -10.680776 7.962818 0.273903 -0.854483 0.131841 13.763013 -60.214628 -9.931617 30.827948 85.435096 36.404461 -3.358823 -12.705511 1.475988 0.182248 0.457616 0.079155
-122.376836 51.685718 -50.873843 176.079449 -20.203911 0.363219 -0.783360 12.079653 0.839438 -0.067984 0.893011 0.114039 -0.114952 1.525907 0.194187 -0.723017 11.048086 1.350252 -0.952386 19.277419 -1.952207 -0.569964 -5.355928 -1.845807 3.961351 16.198108 13.122680 30.232944 -2.157359 -26.625269 105.416334 -67.445274 -137.429636 1.616029 3.203446 0.668894 -4.406176 15.672753 -15.465033 -30.411441 1.107984 28.834867 -85.140665 -74.256130 125.871425 11.556568 8.920037 -9.329529 -11.361761 -62.124485 6.198152 -100.091535 82.243790 -107.993707 -2.175241 -10.678332 7.967035 0.271010 -0.855966 0.128053 13.764585 -60.231099 -9.933838 30.878513 85.435221 36.453138 -3.361586 -12.707294 1.475385 0.181915 0.455634 0.079333
-122.376402 51.684828 -50.875420 176.078402 -20.189203 0.362217 -0.774763 12.083342 0.837123 -0.067559 0.893111 0.113783 -0.105175 1.543196 0.188746 -0.710744 11.051373 1.348375 -0.967296 19.248402 -1.937498 -0.570091 -5.355870 -1.846516 3.967685 16.155184 13.121256 30.245080 -2.152454 -26.632172 105.408954 -67.451648 -137.408398 1.616844 3.213239 0.646187 -4.426248 15.641601 -15.449679 -30.415857 1.105830 28.846365 -85.570590 -74.437329 126.266967 11.486320 8.915736 -9.306369 -11.374456 -62.137499 6.211833 -100.080790 82.243062 -107.987332 -2.167903 -10.672474 7.971733 0.266818 -0.860332 0.122930 13.764894 -60.247023 -9.935882 30.874286 85.441767 36.450583 -3.354229 -12.708421 1.472811 0.185062 0.451493 0.078569
-122.375470 51.683994 -50.877410 176.072898 -20.177127 0.362106 -0.751540 12.103606 0.833520 -0.075837 0.877003 0.118140 -0.102838 1.543712 0.188795 -0.702547 11.052845 1.346926 -0.970424 19.246536 -1.938458 -0.554711 -5.349093 -1.869072 3.981701 16.132605 13.109699 30.257736 -2.146658 -26.634277 105.391609 -67.467421 -137.417168 1.627512 3.198115 0.679769 -4.438939 15.630924 -15.443997 -30.430542 1.104048 28.861014 -85.825369 -74.556432 126.504231 11.451653 8.918592 -9.288368 -11.383806 -62.147756 6.228770 -100.075344 82.241898 -107.985357 -2.169823 -10.668814 7.971919 0.268483 -0.862389 0.123021 13.774406 -60.259486 -9.937581 30.822641 85.450221 36.400845 -3.346238 -12.712024 1.473911 0.180316 0.448471 0.077851
